<svg xmlns="http://www.w3.org/2000/svg" width="38px" height="39" style="vertical-align: middle;" viewBox="0 0 33.51 33.97" fill="currentColor">
  <path d="M18.38 34h-6.37a2.25 2.25 0 01-2.17-1.1c-3.2-5-6.46-10-9.65-15a1.53 1.53 0 010-1.47C3.4 11.34 6.69 6.32 9.93 1.28 11.07-.49 12.54.09 18.62.09h4.31c2.28 0 3.1.46 3.84 1.58 1 1.46 3.75 5.51 6.24 9.23.91 1.36.58 2.21-1 2.22H20.26a2.09 2.09 0 00-1.78.9c-1.93 2.12-2 4.09 0 6.22a2.22 2.22 0 001.9 1c3.82-.05 7.65-.05 11.47 0 .53 0 1.23 0 1.53.59a1.75 1.75 0 01-.19 1.37c-2 3.22-4.17 6.4-6.19 9.64A2.42 2.42 0 0124.6 34c-2.07-.08-4.15 0-6.22 0zM3.86 14.74a.66.66 0 00.55 1c3.16 0 6.37.05 9.4 0a2.46 2.46 0 001.27-.8c1-1.44 1.64-2.65 2.58-4.11l4.69-7.29a.66.66 0 00-.56-1h-8.67a1.75 1.75 0 00-1.75.94zm17.9 16.88a.67.67 0 00.56-1c-2.63-4-5.13-7.72-7.68-11.59a1.57 1.57 0 00-1.09-.56H4.1a.51.51 0 00-.42.79l7.94 11.82a1.47 1.47 0 001.17.57zm4.13-1.8l3.53-5.47a.67.67 0 00-.56-1h-7.07a.66.66 0 00-.55 1c1.17 1.83 2.32 3.61 3.53 5.49a.67.67 0 001.12-.02zm0-25.56a.66.66 0 00-1.11 0l-3.5 5.43a.67.67 0 00.56 1h7a.67.67 0 00.56-1z"></path>
</svg>