<?xml version="1.0" standalone="no"?>
<!DOCTYPE svg PUBLIC "-//W3C//DTD SVG 20010904//EN"
 "http://www.w3.org/TR/2001/REC-SVG-20010904/DTD/svg10.dtd">
<svg version="1.0" xmlns="http://www.w3.org/2000/svg"
 width="624.000000pt" height="624.000000pt" viewBox="0 0 624.000000 624.000000"
 preserveAspectRatio="xMidYMid meet">
<metadata>
Created by potrace 1.11, written by Peter Selinger 2001-2013
</metadata>
<g transform="translate(0.000000,624.000000) scale(0.100000,-0.100000)"
fill="#000000" stroke="none">
<path d="M2367 6233 c-2 -1 -36 -4 -77 -6 -41 -3 -75 -6 -75 -7 0 -2 -9 -4
-20 -5 -140 -19 -246 -92 -338 -235 -23 -36 -45 -66 -49 -68 -5 -2 -8 -8 -8
-12 0 -5 -45 -78 -99 -162 -55 -84 -127 -196 -161 -248 -33 -52 -97 -150 -140
-218 -44 -68 -80 -127 -80 -132 0 -4 -3 -10 -8 -12 -4 -1 -27 -34 -52 -73 -25
-38 -48 -74 -52 -80 -26 -34 -128 -197 -128 -204 0 -5 -4 -11 -8 -13 -5 -1
-41 -55 -81 -118 -40 -63 -108 -169 -152 -235 -43 -66 -82 -126 -85 -133 -7
-14 -126 -197 -141 -218 -14 -18 -33 -48 -40 -64 -4 -8 -32 -53 -63 -100 -54
-81 -138 -213 -170 -265 -18 -29 -164 -258 -203 -318 -76 -118 -102 -215 -77
-293 12 -39 117 -216 132 -222 4 -2 8 -8 8 -13 0 -5 29 -53 63 -107 130 -199
142 -217 149 -232 5 -8 36 -58 70 -111 35 -53 184 -284 333 -515 148 -230 273
-420 277 -422 5 -2 8 -8 8 -12 0 -9 88 -148 199 -315 25 -38 51 -78 56 -87 6
-10 48 -77 95 -149 47 -71 90 -137 95 -146 10 -17 117 -185 135 -213 6 -8 51
-78 100 -155 119 -186 157 -227 250 -273 l74 -37 1306 -1 1305 0 58 22 c69 27
146 82 185 132 24 31 181 275 216 337 6 10 16 24 21 30 6 6 19 28 30 48 11 20
23 37 27 37 5 0 8 7 8 15 0 8 5 15 10 15 6 0 10 4 10 10 0 5 42 74 93 152 51
79 102 158 112 176 11 17 23 32 27 32 4 0 8 4 8 10 0 5 52 89 116 187 64 98
129 198 145 223 16 25 32 50 36 55 5 6 42 64 83 130 41 66 78 125 83 130 22
28 137 217 137 225 0 6 3 10 8 10 4 0 13 12 19 27 33 75 36 193 7 242 -25 43
-93 77 -174 87 -36 4 -569 8 -1185 9 l-1120 1 -65 30 c-79 38 -125 80 -235
219 -21 28 -44 55 -50 60 -18 17 -89 146 -113 205 -84 211 -50 430 102 650
126 183 222 269 343 308 22 7 411 11 1176 11 1207 1 1219 1 1286 47 102 69 94
182 -27 369 -25 39 -49 72 -54 73 -4 2 -8 8 -8 13 0 8 -147 232 -173 264 -5 6
-17 24 -27 40 -27 41 -34 52 -122 182 -43 63 -78 118 -78 123 0 5 -4 10 -8 12
-4 2 -55 73 -112 158 -57 85 -136 202 -175 260 -39 58 -134 197 -210 310 -172
255 -208 305 -254 353 -77 83 -192 141 -316 162 -11 2 -33 6 -50 10 -16 4
-288 9 -603 10 -315 2 -715 6 -890 10 -356 8 -642 11 -645 8z m1730 -479 c29
-14 57 -55 64 -94 4 -23 -11 -80 -22 -80 -5 0 -9 -5 -9 -10 0 -6 -38 -69 -85
-141 -47 -71 -85 -134 -85 -139 0 -4 -3 -10 -8 -12 -4 -1 -36 -48 -71 -103
-163 -254 -144 -225 -340 -528 -66 -104 -121 -190 -121 -193 0 -3 -5 -10 -10
-17 -15 -17 -69 -100 -166 -257 -47 -74 -89 -142 -94 -150 -5 -8 -19 -31 -30
-50 -11 -19 -29 -48 -40 -65 -11 -16 -23 -37 -27 -45 -10 -21 -159 -256 -204
-320 -47 -69 -83 -110 -97 -110 -5 0 -12 -6 -15 -13 -3 -7 -36 -28 -73 -47
l-69 -34 -881 1 c-825 0 -883 1 -911 18 -37 22 -63 64 -63 100 0 30 38 115 52
115 4 0 8 7 8 15 0 8 5 15 10 15 6 0 10 5 10 10 0 10 30 56 55 86 6 7 24 35
40 63 17 28 33 51 38 51 4 0 7 7 7 15 0 8 5 15 10 15 6 0 10 5 10 10 0 12 41
73 53 78 4 2 7 7 7 12 0 11 82 134 93 138 4 2 7 8 7 13 0 9 30 56 55 85 6 7
24 35 40 63 17 28 33 51 38 51 4 0 7 7 7 15 0 8 5 15 10 15 6 0 10 5 10 10 0
12 41 73 53 78 4 2 7 8 7 13 0 10 62 103 73 107 4 2 7 10 7 18 0 8 5 14 10 14
6 0 10 5 10 10 0 10 30 56 55 86 6 7 24 35 40 63 17 28 33 51 38 51 4 0 7 4 7
9 0 8 85 139 108 166 5 6 11 15 13 21 8 19 204 309 212 312 4 2 7 8 7 13 0 11
42 72 53 77 4 2 7 8 7 13 0 10 62 103 73 107 4 2 7 10 7 18 0 8 5 14 10 14 6
0 10 6 11 13 1 20 84 130 122 161 20 16 60 37 89 47 49 17 111 18 903 18 736
0 854 -2 882 -15z m650 -259 c19 -6 103 -112 103 -130 0 -3 5 -11 10 -18 8 -9
165 -249 215 -329 6 -9 78 -120 160 -247 217 -335 215 -331 215 -374 0 -42
-27 -89 -63 -109 -30 -17 -1345 -20 -1366 -4 -8 6 -15 9 -17 6 -5 -9 -55 40
-63 63 -12 31 -4 85 16 116 10 14 22 34 28 44 5 9 60 94 120 188 209 323 310
480 429 666 39 61 77 112 84 112 6 1 12 5 12 10 0 19 66 23 117 6z m-2144
-2663 c67 -25 146 -89 147 -119 0 -6 4 -13 9 -15 7 -2 108 -151 176 -259 39
-61 55 -86 64 -96 6 -7 16 -24 23 -38 6 -14 15 -25 20 -25 4 0 8 -6 8 -13 0
-7 8 -22 18 -33 24 -27 86 -121 113 -171 7 -13 16 -23 21 -23 4 0 8 -5 8 -12
0 -6 11 -26 25 -44 14 -18 25 -35 25 -39 0 -3 11 -18 25 -33 14 -15 25 -30 25
-34 0 -5 52 -85 115 -178 63 -94 115 -173 115 -176 0 -3 5 -10 11 -17 6 -7 98
-145 205 -307 107 -162 198 -299 202 -305 4 -5 49 -73 100 -151 72 -110 93
-149 96 -182 2 -23 1 -42 -3 -42 -3 0 -11 -10 -16 -22 -6 -12 -22 -30 -37 -41
-27 -20 -45 -21 -888 -23 -838 -3 -863 -3 -913 17 -29 11 -63 30 -77 42 -28
24 -160 213 -160 228 0 5 -3 9 -8 9 -4 0 -16 16 -26 35 -11 19 -23 35 -28 35
-4 0 -8 5 -8 12 0 6 -11 26 -25 44 -14 18 -25 37 -25 43 0 6 -4 11 -8 11 -5 0
-17 16 -28 35 -10 19 -22 35 -26 35 -5 0 -8 4 -8 9 0 7 -99 160 -127 196 -4 6
-140 208 -302 450 -162 242 -355 530 -429 640 -73 110 -140 208 -148 218 -8 9
-14 22 -14 27 0 6 -4 10 -10 10 -5 0 -10 4 -10 9 0 5 -27 48 -60 97 -60 88
-68 112 -50 158 21 56 -12 55 953 54 785 0 892 -2 930 -16z m2796 -901 c52
-37 70 -92 47 -145 -11 -24 -129 -212 -186 -296 -54 -80 -220 -343 -220 -350
0 -4 -4 -10 -8 -12 -5 -1 -62 -86 -126 -187 -65 -101 -127 -192 -138 -203 -35
-35 -126 -32 -163 6 -6 6 -85 126 -175 266 -270 420 -298 464 -309 477 -6 7
-11 14 -11 17 0 5 -113 184 -127 201 -85 103 -66 221 38 242 23 4 334 8 693 7
l653 -1 32 -22z"/>
</g>
</svg>
